<svg xmlns="http://www.w3.org/2000/svg" xmlns:xlink="http://www.w3.org/1999/xlink" width="500" zoomAndPan="magnify" viewBox="0 0 375 374.999991" height="500" preserveAspectRatio="xMidYMid meet" version="1.0"><defs><g/></defs><rect x="-37.5" width="450" fill="#ffffff" y="-37.499999" height="449.999989" fill-opacity="1"/><rect x="-37.5" width="450" fill="#000000" y="-37.499999" height="449.999989" fill-opacity="1"/><g fill="#ffffff" fill-opacity="1"><g transform="translate(76.942859, 305.921005)"><g><path d="M 123.1875 3.234375 C 102.425781 3.234375 84.128906 -1.082031 68.296875 -9.71875 C 52.472656 -18.351562 40.085938 -31.328125 31.140625 -48.640625 C 22.203125 -65.960938 17.734375 -87.316406 17.734375 -112.703125 C 17.734375 -138.097656 22.203125 -159.453125 31.140625 -176.765625 C 40.085938 -194.085938 52.472656 -207.066406 68.296875 -215.703125 C 84.128906 -224.335938 102.425781 -228.65625 123.1875 -228.65625 C 144.875 -228.65625 163.296875 -224.414062 178.453125 -215.9375 C 193.617188 -207.457031 204.441406 -194.53125 210.921875 -177.15625 L 178.390625 -157.265625 L 174.53125 -157.421875 C 169.695312 -169.140625 163.144531 -177.539062 154.875 -182.625 C 146.601562 -187.71875 136.039062 -190.265625 123.1875 -190.265625 C 104.476562 -190.265625 89.878906 -184.070312 79.390625 -171.6875 C 68.910156 -159.300781 63.671875 -139.640625 63.671875 -112.703125 C 63.671875 -85.878906 68.910156 -66.273438 79.390625 -53.890625 C 89.878906 -41.503906 104.476562 -35.3125 123.1875 -35.3125 C 152.488281 -35.3125 170.425781 -49.546875 177 -78.015625 L 180.859375 -78.015625 L 213.703125 -60.90625 C 207.535156 -39.519531 197 -23.484375 182.09375 -12.796875 C 167.1875 -2.109375 147.550781 3.234375 123.1875 3.234375 Z M 123.1875 3.234375 "/></g></g></g></svg>