<svg xmlns="http://www.w3.org/2000/svg" xmlns:xlink="http://www.w3.org/1999/xlink" width="500" zoomAndPan="magnify" viewBox="0 0 375 374.999991" height="500" preserveAspectRatio="xMidYMid meet" version="1.0"><defs><g/></defs><g fill="#ff0000" fill-opacity="1"><g transform="translate(0.0000045, 199.752512)"><g><path d="M 11.203125 -155.96875 L 105.78125 -155.96875 L 105.78125 -127.984375 L 43.59375 -127.984375 L 43.59375 -93.578125 L 95.78125 -93.578125 L 95.78125 -65.59375 L 43.59375 -65.59375 L 43.59375 0 L 11.203125 0 Z M 11.203125 -155.96875 "/></g></g></g><g fill="#000000" fill-opacity="1"><g transform="translate(109.792965, 267.374982)"><g><path d="M 69.59375 2.59375 C 48.394531 2.59375 32.796875 -3.4375 22.796875 -15.5 C 12.796875 -27.5625 7.796875 -47.054688 7.796875 -73.984375 L 7.796875 -81.984375 C 7.796875 -109.046875 12.726562 -128.578125 22.59375 -140.578125 C 32.457031 -152.578125 47.457031 -158.578125 67.59375 -158.578125 C 86.25 -158.578125 100.375 -154.34375 109.96875 -145.875 C 119.570312 -137.40625 124.375 -123.441406 124.375 -103.984375 L 124.375 -96.78125 L 91.984375 -96.78125 C 91.984375 -107.445312 90.484375 -115.742188 87.484375 -121.671875 C 84.484375 -127.609375 78.453125 -130.578125 69.390625 -130.578125 L 67.59375 -130.578125 C 60.519531 -130.578125 55.015625 -128.707031 51.078125 -124.96875 C 47.148438 -121.238281 44.453125 -115.738281 42.984375 -108.46875 C 41.523438 -101.207031 40.796875 -92.378906 40.796875 -81.984375 L 40.796875 -73.984375 C 40.796875 -63.585938 41.5625 -54.789062 43.09375 -47.59375 C 44.625 -40.394531 47.390625 -34.894531 51.390625 -31.09375 C 55.390625 -27.289062 61.191406 -25.390625 68.796875 -25.390625 L 70.59375 -25.390625 C 75.257812 -25.390625 79.359375 -25.957031 82.890625 -27.09375 C 86.421875 -28.226562 89.382812 -29.660156 91.78125 -31.390625 L 91.78125 -56.390625 L 71.1875 -56.390625 L 71.1875 -84.390625 L 124.1875 -84.390625 L 124.1875 -15.59375 C 118.445312 -10.800781 111.3125 -6.570312 102.78125 -2.90625 C 94.25 0.757812 83.1875 2.59375 69.59375 2.59375 Z M 69.59375 2.59375 "/></g></g></g><g fill="#0880ff" fill-opacity="1"><g transform="translate(245.097644, 334.997452)"><g><path d="M 40.59375 -73.984375 C 40.59375 -63.585938 41.289062 -54.789062 42.6875 -47.59375 C 44.09375 -40.394531 46.660156 -34.894531 50.390625 -31.09375 C 54.117188 -27.289062 59.453125 -25.390625 66.390625 -25.390625 L 68.1875 -25.390625 C 76.050781 -25.390625 81.613281 -27.921875 84.875 -32.984375 C 88.144531 -38.054688 89.78125 -44.789062 89.78125 -53.1875 L 122.1875 -53.1875 L 122.1875 -51.390625 C 122.1875 -32.191406 117.519531 -18.394531 108.1875 -10 C 98.851562 -1.601562 84.921875 2.59375 66.390625 2.59375 C 46.128906 2.59375 31.296875 -3.4375 21.890625 -15.5 C 12.492188 -27.5625 7.796875 -47.054688 7.796875 -73.984375 L 7.796875 -81.984375 C 7.796875 -109.046875 12.492188 -128.578125 21.890625 -140.578125 C 31.296875 -152.578125 46.128906 -158.578125 66.390625 -158.578125 C 84.921875 -158.578125 98.851562 -154.34375 108.1875 -145.875 C 117.519531 -137.40625 122.1875 -123.441406 122.1875 -103.984375 L 122.1875 -96.78125 L 89.78125 -96.78125 C 89.78125 -107.445312 88.3125 -115.742188 85.375 -121.671875 C 82.445312 -127.609375 76.71875 -130.578125 68.1875 -130.578125 L 66.390625 -130.578125 C 59.453125 -130.578125 54.117188 -128.707031 50.390625 -124.96875 C 46.660156 -121.238281 44.09375 -115.738281 42.6875 -108.46875 C 41.289062 -101.207031 40.59375 -92.378906 40.59375 -81.984375 Z M 40.59375 -73.984375 "/></g></g></g></svg>